<?xml version="1.0" encoding="UTF-8"?>
<svg version="1.1" xmlns="http://www.w3.org/2000/svg" width="980" height="980">
<path d="M0 0 C323.4 0 646.8 0 980 0 C980 323.4 980 646.8 980 980 C656.6 980 333.2 980 0 980 C0 656.6 0 333.2 0 0 Z " fill="#FEFEFE" transform="translate(0,0)"/>
<path d="M0 0 C0 48.18 0 96.36 0 146 C-4.31617993 144.56127336 -6.98427267 143.59170323 -10.640625 141.2890625 C-14.32072334 139.01897937 -18.02595846 136.82721701 -21.796875 134.7109375 C-23.26447266 133.88722656 -23.26447266 133.88722656 -24.76171875 133.046875 C-26.76913539 131.92377131 -28.77695409 130.801386 -30.78515625 129.6796875 C-31.75839844 129.133125 -32.73164063 128.5865625 -33.734375 128.0234375 C-34.60288086 127.53794434 -35.47138672 127.05245117 -36.36621094 126.55224609 C-37.23536133 126.04000488 -38.10451172 125.52776367 -39 125 C-40.62977783 124.21955322 -40.62977783 124.21955322 -42.29248047 123.42333984 C-45.28913877 120.74120907 -45.41925741 120.37721618 -45.68115234 116.59863281 C-45.68020511 114.79985044 -45.64645603 113.00088929 -45.5859375 111.203125 C-45.57744781 110.25435486 -45.56895813 109.30558472 -45.56021118 108.32806396 C-45.526652 105.30088221 -45.45136782 102.27637496 -45.375 99.25 C-45.34490366 97.19665308 -45.31752728 95.14326437 -45.29296875 93.08984375 C-45.2268522 88.05886702 -45.12331254 83.02988674 -45 78 C-48.54235455 80.06132009 -52.08376733 82.12425324 -55.625 84.1875 C-56.6970166 84.81156738 -57.7690332 85.43563477 -58.87353516 86.07861328 C-64.40445904 89.30275501 -69.9247332 92.54276165 -75.421875 95.82421875 C-76.42395996 96.42145752 -77.42604492 97.01869629 -78.45849609 97.6340332 C-80.38029756 98.78122609 -82.29995356 99.93202194 -84.21728516 101.08666992 C-85.08144043 101.60205322 -85.9455957 102.11743652 -86.8359375 102.6484375 C-87.59438965 103.10395996 -88.3528418 103.55948242 -89.13427734 104.02880859 C-91 105 -91 105 -93 105 C-93.35990186 109.88670548 -93.27613252 114.24970117 -92 119 C-88.54254997 122.69327007 -84.4603308 124.63477146 -79.9375 126.8125 C-78.73502805 127.43913168 -77.53523846 128.07093653 -76.33813477 128.70776367 C-73.97639189 129.9558773 -71.60557811 131.1697588 -69.21875 132.37109375 C-65.21726934 134.39611491 -61.32585969 136.58069568 -57.4375 138.8125 C-56.18403865 139.51511721 -54.93013814 140.21695158 -53.67578125 140.91796875 C-49.105096 143.49240265 -44.59319635 146.16492775 -40.07836914 148.83569336 C-33.20433275 152.8956784 -26.29160298 156.88814032 -19.375 160.875 C-18.26012207 161.51775879 -17.14524414 162.16051758 -15.99658203 162.82275391 C-10.6698555 165.89161332 -5.3375707 168.9499596 0 172 C0 224.8 0 277.6 0 332 C-6.7045068 329.7651644 -6.7045068 329.7651644 -9.61328125 327.81640625 C-15.01774847 324.31457781 -20.6044589 321.14435791 -26.1875 317.9375 C-27.33081787 317.27919189 -28.47413574 316.62088379 -29.65209961 315.94262695 C-36.77911542 311.84042222 -43.9186569 307.76032094 -51.0625 303.6875 C-61.96220002 297.47110471 -72.77004621 291.10612601 -83.55859375 284.69921875 C-84.52289307 284.12743896 -85.48719238 283.55565918 -86.48071289 282.96655273 C-88.3468466 281.85978039 -90.21199481 280.75134387 -92.07592773 279.64086914 C-98.3169739 275.9394945 -104.61998496 272.4800082 -111 269 C-120.24 263.72 -129.48 258.44 -139 253 C-139 225.94 -139 198.88 -139 171 C-134.75066507 172.69973397 -130.89577038 174.62482174 -126.9375 176.875 C-126.25647217 177.25922119 -125.57544434 177.64344238 -124.8737793 178.03930664 C-118.08360814 181.89820588 -111.399749 185.93402605 -104.73999023 190.01318359 C-103.93505127 190.50254395 -103.1301123 190.9919043 -102.30078125 191.49609375 C-101.59091064 191.93107178 -100.88104004 192.3660498 -100.1496582 192.81420898 C-97.59401488 194.28154946 -97.59401488 194.28154946 -93 196 C-93 206.23 -93 216.46 -93 227 C-91.35 227.66 -89.7 228.32 -88 229 C-86.12340578 230.01031628 -84.26510242 231.05501986 -82.421875 232.125 C-81.34164062 232.75019531 -80.26140625 233.37539063 -79.1484375 234.01953125 C-78.02695312 234.67308594 -76.90546875 235.32664062 -75.75 236 C-74.67492187 236.62261719 -73.59984375 237.24523437 -72.4921875 237.88671875 C-63.3033989 243.21621614 -54.15611039 248.61405271 -45 254 C-45 235.52 -45 217.04 -45 198 C-46.98 197.34 -48.96 196.68 -51 196 C-52.64422579 195.15205726 -54.26231535 194.25167158 -55.8515625 193.3046875 C-56.77066406 192.76199219 -57.68976563 192.21929688 -58.63671875 191.66015625 C-59.62285156 191.07105469 -60.60898437 190.48195313 -61.625 189.875 C-63.78313461 188.60034343 -65.94201956 187.3269566 -68.1015625 186.0546875 C-69.22981445 185.38920898 -70.35806641 184.72373047 -71.52050781 184.03808594 C-76.73049703 180.97728595 -81.9836355 177.99203609 -87.23553467 175.00393677 C-114.22306755 159.64870364 -114.22306755 159.64870364 -124.05999756 153.66418457 C-126.97115016 151.94092072 -126.97115016 151.94092072 -130.11480713 150.68945312 C-133.58229678 149.10152162 -136.1995292 147.60256645 -139 145 C-140.66960282 139.95768027 -140.40654919 135.10608941 -140.171875 129.87890625 C-140.14946574 128.40924537 -140.13239722 126.93949424 -140.12042236 125.4697113 C-140.07480633 121.61866508 -139.95716007 117.77313518 -139.82397461 113.92425537 C-139.70074561 109.98997652 -139.64631455 106.05479695 -139.5859375 102.11914062 C-139.4576065 94.41025703 -139.2530995 86.705904 -139 79 C-138.28849792 78.60273712 -137.57699585 78.20547424 -136.84393311 77.7961731 C-134.16205324 76.29819326 -131.48063101 74.79939816 -128.79949951 73.30007935 C-127.08526343 72.34177272 -125.37051832 71.38437686 -123.65576172 70.42700195 C-117.48160965 66.97354766 -111.33386394 63.48528832 -105.25 59.875 C-104.54980743 59.45970535 -103.84961487 59.04441071 -103.12820435 58.61653137 C-102.50066254 58.24420883 -101.87312073 57.87188629 -101.2265625 57.48828125 C-96.3893396 54.62719872 -91.50795359 51.84459129 -86.625 49.0625 C-79.23582705 44.85166716 -71.86186349 40.61635522 -64.50512695 36.34912109 C-58.88354272 33.08884442 -53.25535053 29.84021379 -47.62451172 26.59594727 C-37.63154533 20.83780056 -27.64970759 15.06122415 -17.6875 9.25 C-16.18473511 8.37347778 -16.18473511 8.37347778 -14.65161133 7.47924805 C-9.45536422 4.45466447 -9.45536422 4.45466447 -4.32348633 1.32324219 C-2 0 -2 0 0 0 Z " fill="#242021" transform="translate(479,324)"/>
<path d="M0 0 C3.49472611 1.39789045 6.44993488 2.71716195 9.67578125 4.546875 C11.02216675 5.30846924 11.02216675 5.30846924 12.39575195 6.08544922 C13.35827881 6.63475098 14.32080566 7.18405273 15.3125 7.75 C16.32723389 8.32637207 17.34196777 8.90274414 18.38745117 9.49658203 C27.5780878 14.73040401 36.71188214 20.06024042 45.83984375 25.40234375 C52.17086977 29.10512968 58.52063453 32.7749441 64.875 36.4375 C65.95354248 37.05923096 67.03208496 37.68096191 68.14331055 38.3215332 C71.42860776 40.21481752 74.71423989 42.10751917 78 44 C82.37542829 46.52009089 86.75048807 49.04081873 91.125 51.5625 C92.19161865 52.17722168 93.2582373 52.79194336 94.35717773 53.42529297 C102.8663192 58.33433853 111.35328569 63.2808645 119.82275391 68.25805664 C126.15711213 71.96846817 132.54832606 75.48090512 139 79 C139 106.06 139 133.12 139 161 C129.22082325 157.0883293 120.24259155 151.4424628 111.16552734 146.13500977 C105.16492999 142.63623875 99.10566327 139.33036179 93 136 C93 125.77 93 115.54 93 105 C91.35 104.34 89.7 103.68 88 103 C86.34407661 102.13277138 84.70389748 101.23501373 83.078125 100.3125 C82.14258789 99.78309814 81.20705078 99.25369629 80.24316406 98.70825195 C78.76154785 97.86266724 78.76154785 97.86266724 77.25 97 C76.23389648 96.4227417 75.21779297 95.8454834 74.17089844 95.25073242 C51.56276526 82.37517684 51.56276526 82.37517684 45 78 C45 96.48 45 114.96 45 134 C46.65 134.66 48.3 135.32 50 136 C51.62742565 136.82138936 53.24174292 137.66913835 54.84375 138.5390625 C55.75350586 139.03293457 56.66326172 139.52680664 57.60058594 140.03564453 C58.55739258 140.56013184 59.51419922 141.08461914 60.5 141.625 C61.49032227 142.16624512 62.48064453 142.70749023 63.50097656 143.26513672 C69.7177345 146.68486232 75.77890298 150.25274943 81.78125 154.03515625 C85.5429707 156.33144934 89.38373879 158.4488245 93.25 160.5625 C101.99776316 165.35169291 110.53645254 170.46668719 119.05761719 175.64672852 C120.05825195 176.25315186 121.05888672 176.8595752 122.08984375 177.484375 C123.40263306 178.28439941 123.40263306 178.28439941 124.74194336 179.10058594 C129.43586936 181.83709731 134.23007449 184.39822245 139 187 C139 208.78 139 230.56 139 253 C125.635 260.425 125.635 260.425 112 268 C103.19859025 273.14976102 94.42188233 278.3300039 85.69140625 283.59765625 C85.02915039 283.99678223 84.36689453 284.3959082 83.68457031 284.80712891 C81.981617 285.83538579 80.28165575 286.8685939 78.58203125 287.90234375 C75.71942514 289.60879293 72.80519175 291.20559428 69.875 292.79296875 C63.57918127 296.20662291 57.38261788 299.782635 51.1875 303.375 C48.8740225 304.71410344 46.56004056 306.05233243 44.24609375 307.390625 C42.61003174 308.33711914 42.61003174 308.33711914 40.94091797 309.30273438 C37.55221879 311.25842395 34.15310564 313.19451098 30.75 315.125 C26.5848522 317.49156125 22.45771855 319.91255555 18.34375 322.3671875 C17.33989258 322.96515137 16.33603516 323.56311523 15.30175781 324.17919922 C13.29353059 325.37738791 11.28760032 326.57943623 9.28417969 327.78564453 C8.37055664 328.33075684 7.45693359 328.87586914 6.515625 329.4375 C5.28247559 330.17806641 5.28247559 330.17806641 4.02441406 330.93359375 C2 332 2 332 0 332 C0 283.82 0 235.64 0 186 C6.74820011 188.24940004 6.74820011 188.24940004 9.53125 189.92578125 C10.48463257 190.48833618 10.48463257 190.48833618 11.45727539 191.06225586 C12.86959497 191.92666229 14.27192017 192.80753482 15.66577148 193.70141602 C20.02822137 196.44711427 24.08915865 198.45012515 29.00390625 200.0390625 C35.63974182 202.4933981 41.24723306 204.72692105 45 211 C48.48704411 224.60528561 46.28874095 240.19064505 45 254 C46.11189697 253.34483398 47.22379395 252.68966797 48.36938477 252.01464844 C56.20899531 247.39764787 64.05314779 242.79032661 71.9375 238.25 C77.77098026 234.8881623 83.5720727 231.49018312 89.28515625 227.92578125 C91 227 91 227 93 227 C93.36819249 222.1093407 93.28673542 217.75250557 92 213 C88.49873948 209.28787403 84.37479521 207.32248159 79.8125 205.125 C78.59967241 204.49287255 77.38954354 203.85554101 76.18212891 203.21313477 C73.83045826 201.96994693 71.46996214 200.76044648 69.09326172 199.56396484 C65.60711363 197.80135516 62.24530697 195.91087574 58.875 193.9375 C57.84117187 193.34839844 56.80734375 192.75929688 55.7421875 192.15234375 C49.41550523 188.52704293 43.13026813 184.82953113 36.83496094 181.15014648 C31.28035814 177.90586908 25.71801972 174.67759897 20.125 171.5 C15.39939628 168.81447398 10.72422653 166.060193 6.0859375 163.2265625 C4.10664596 162.06270942 2.05370864 161.02685432 0 160 C0 107.2 0 54.4 0 0 Z " fill="#232021" transform="translate(501,324)"/>
<path d="M0 0 C-4.52229378 3.91621317 -9.52213418 6.78390448 -14.6875 9.75 C-15.9878418 10.50990234 -15.9878418 10.50990234 -17.31445312 11.28515625 C-18.14267578 11.76339844 -18.97089844 12.24164062 -19.82421875 12.734375 C-20.95476685 13.38744629 -20.95476685 13.38744629 -22.1081543 14.05371094 C-24 15 -24 15 -26 15 C-26.6875 13.1875 -26.6875 13.1875 -27 11 C-25.875 9.1875 -25.875 9.1875 -24 8 C-23.24074219 8.20882812 -22.48148438 8.41765625 -21.69921875 8.6328125 C-18.92449849 9.27969335 -18.92449849 9.27969335 -16.46484375 7.63671875 C-15.21380859 6.67185547 -15.21380859 6.67185547 -13.9375 5.6875 C-6.01071091 -0.33392838 -6.01071091 -0.33392838 0 0 Z " fill="#292727" transform="translate(624,585)"/>
<path d="M0 0 C3.45925163 1.2491742 6.14693203 2.67527795 9 5 C4.56923077 8.07692308 4.56923077 8.07692308 1.6875 7.6875 C1.130625 7.460625 0.57375 7.23375 0 7 C0 4.69 0 2.38 0 0 Z M2 8 C4 9 4 9 4 9 Z " fill="#292627" transform="translate(503,511)"/>
<path d="M0 0 C1.36125 0.12375 1.36125 0.12375 2.75 0.25 C2.75 1.24 2.75 2.23 2.75 3.25 C1.43 3.25 0.11 3.25 -1.25 3.25 C-0.26 3.91 0.73 4.57 1.75 5.25 C1.42 6.24 1.09 7.23 0.75 8.25 C-1.89 6.93 -4.53 5.61 -7.25 4.25 C-4.83923194 1.28290085 -3.90322061 0.30024774 0 0 Z " fill="#2B2728" transform="translate(396.25,600.75)"/>
<path d="M0 0 C0.33 0.66 0.66 1.32 1 2 C-4.57683621 6.9442784 -8.42893341 9.86234424 -16 10 C-12.75359085 7.439119 -9.33059284 5.37523283 -5.75 3.3125 C-4.13351562 2.37857422 -4.13351562 2.37857422 -2.484375 1.42578125 C-1.25460937 0.72001953 -1.25460937 0.72001953 0 0 Z " fill="#2F2E2E" transform="translate(394,372)"/>
<path d="M0 0 C4.10839064 1.45002023 7.50344613 3.3979134 11 6 C11 6.66 11 7.32 11 8 C8.03 7.505 8.03 7.505 5 7 C5 6.34 5 5.68 5 5 C4.01 5 3.02 5 2 5 C1.34 3.35 0.68 1.7 0 0 Z M6 8 C8 9 8 9 8 9 Z " fill="#2E2B2C" transform="translate(566,469)"/>
<path d="M0 0 C0.66 1.32 1.32 2.64 2 4 C1 5.5625 1 5.5625 -1 7 C-3.76614782 6.96726452 -6.26030547 6.49404328 -9 6 C-6.11912454 3.59927045 -3.43595166 1.52708963 0 0 Z " fill="#2E292B" transform="translate(441,345)"/>
<path d="M0 0 C0 1.98 0 3.96 0 6 C-3.77545388 4.90931332 -6.47043472 4.0916909 -9 1 C-5.92677456 0.08941469 -3.19902639 -0.08886184 0 0 Z " fill="#EBEBEB" transform="translate(433,571)"/>
<path d="M0 0 C-3.19990508 2.74277578 -6.00499382 4.6302836 -10 6 C-10.33 5.01 -10.66 4.02 -11 3 C-7.17860188 -0.1390056 -4.83859894 -1.61286631 0 0 Z " fill="#EEECED" transform="translate(427,353)"/>
<path d="M0 0 C3.37503669 1.1858237 5.64722731 2.27573689 8 5 C4.52176885 6.15941038 2.54104422 5.70820884 -1 5 C-1.33 4.01 -1.66 3.02 -2 2 C-1.34 1.34 -0.68 0.68 0 0 Z " fill="#2F2A2B" transform="translate(630,506)"/>
<path d="M0 0 C3.96 1.98 3.96 1.98 8 4 C8 4.99 8 5.98 8 7 C6.35 7.33 4.7 7.66 3 8 C2.67 7.01 2.34 6.02 2 5 C1.34 4.67 0.68 4.34 0 4 C0 2.68 0 1.36 0 0 Z " fill="#292828" transform="translate(606,384)"/>
<path d="M0 0 C4.83256305 0.41421969 6.82679218 2.46413986 10 6 C9.67 6.66 9.34 7.32 9 8 C6.03 6.35 3.06 4.7 0 3 C0 2.01 0 1.02 0 0 Z " fill="#302D2E" transform="translate(341,467)"/>
<path d="M0 0 C2.31 0.66 4.62 1.32 7 2 C7 2.66 7 3.32 7 4 C7.66 4.66 8.32 5.32 9 6 C6.8125 6.75 6.8125 6.75 4 7 C1.1875 5.0625 1.1875 5.0625 -1 3 C-0.67 2.01 -0.34 1.02 0 0 Z " fill="#282727" transform="translate(596,456)"/>
<path d="M0 0 C3.3 1.65 6.6 3.3 10 5 C9.01 5.66 8.02 6.32 7 7 C6.01 6.34 5.02 5.68 4 5 C1.37468476 4.83286431 1.37468476 4.83286431 -1 5 C-0.67 3.35 -0.34 1.7 0 0 Z " fill="#EBEBEB" transform="translate(438,633)"/>
<path d="M0 0 C3.20395416 0 5.09399739 0.74335022 8 2 C7.34 3.65 6.68 5.3 6 7 C4.35 6.67 2.7 6.34 1 6 C1.66 5.34 2.32 4.68 3 4 C2.01 3.34 1.02 2.68 0 2 C0 1.34 0 0.68 0 0 Z M-1 2 C-0.67 2.66 -0.34 3.32 0 4 C-0.66 3.67 -1.32 3.34 -2 3 C-1.67 2.67 -1.34 2.34 -1 2 Z " fill="#2D292A" transform="translate(547,352)"/>
<path d="M0 0 C0.66 0.33 1.32 0.66 2 1 C2 1.99 2 2.98 2 4 C2.99 4.66 3.98 5.32 5 6 C2.69 6.66 0.38 7.32 -2 8 C-3 5 -3 5 -3 2 C-2.01 1.34 -1.02 0.68 0 0 Z " fill="#2E2C2D" transform="translate(576,560)"/>
<path d="M0 0 C4.40114397 0.50298788 6.71195019 2.08772731 10 5 C8.1875 5.625 8.1875 5.625 6 6 C5.01 5.34 4.02 4.68 3 4 C2.67 4.66 2.34 5.32 2 6 C1.34 4.02 0.68 2.04 0 0 Z " fill="#2F2A2C" transform="translate(390,554)"/>
<path d="M0 0 C0.66 0 1.32 0 2 0 C3 1 4 2 5 3 C5.66 3 6.32 3 7 3 C6.67 4.32 6.34 5.64 6 7 C3.69 6.01 1.38 5.02 -1 4 C-0.67 2.68 -0.34 1.36 0 0 Z " fill="#312D2E" transform="translate(417,617)"/>
<path d="M0 0 C3.46941546 0.45822468 6.67395049 0.89131683 10 2 C10 3.32 10 4.64 10 6 C6.40992874 4.66654496 3.20429093 3.1056769 0 1 C0 0.67 0 0.34 0 0 Z " fill="#313030" transform="translate(392,498)"/>
<path d="M0 0 C3.18510283 1.09831132 5.13319067 2.05720779 7.625 4.25 C4.625 5.25 4.625 5.25 1.6875 3.8125 C0.676875 3.296875 -0.33375 2.78125 -1.375 2.25 C-2.695 2.25 -4.015 2.25 -5.375 2.25 C-5.375 1.59 -5.375 0.93 -5.375 0.25 C-3.375 -0.75 -3.375 -0.75 0 0 Z " fill="#EBEBEB" transform="translate(502.375,484.75)"/>
<path d="M0 0 C0.99 0.33 1.98 0.66 3 1 C2.67 1.99 2.34 2.98 2 4 C3.98 4 5.96 4 8 4 C8 4.99 8 5.98 8 7 C5 8 5 8 1.8125 6.5625 C0.884375 6.046875 -0.04375 5.53125 -1 5 C-0.67 3.35 -0.34 1.7 0 0 Z " fill="#2F2D2E" transform="translate(503,480)"/>
<path d="M0 0 C1.32 0.66 2.64 1.32 4 2 C0.37 3.98 -3.26 5.96 -7 8 C-6.67 6.68 -6.34 5.36 -6 4 C-4.0625 2.875 -4.0625 2.875 -2 2 C-1.34 1.34 -0.68 0.68 0 0 Z " fill="#2E2D2D" transform="translate(516,644)"/>
<path d="M0 0 C0 0.66 0 1.32 0 2 C2.475 2.99 2.475 2.99 5 4 C4.67 4.99 4.34 5.98 4 7 C1.03 5.35 -1.94 3.7 -5 2 C-2 0 -2 0 0 0 Z " fill="#2D2B2C" transform="translate(565,516)"/>
<path d="M0 0 C3.3 1.65 6.6 3.3 10 5 C10 5.33 10 5.66 10 6 C5.91281305 6.24042276 2.82320557 5.42258812 -1 4 C-0.67 2.68 -0.34 1.36 0 0 Z " fill="#292929" transform="translate(595,378)"/>
<path d="M0 0 C-5.14285714 4.42857143 -5.14285714 4.42857143 -9 5 C-8.8125 3.125 -8.8125 3.125 -8 1 C-4.70594381 -0.82039948 -3.63772813 -1.21257604 0 0 Z " fill="#EFEEEE" transform="translate(556,572)"/>
<path d="M0 0 C3.96 1.98 3.96 1.98 8 4 C6.68 5.32 5.36 6.64 4 8 C1.53721199 5.53721199 1.00228745 3.29323018 0 0 Z " fill="#2A2829" transform="translate(556,463)"/>
<path d="M0 0 C0.66 0.66 1.32 1.32 2 2 C1.01 2.33 0.02 2.66 -1 3 C-1.33 3.99 -1.66 4.98 -2 6 C-3.32 5.67 -4.64 5.34 -6 5 C-6 4.01 -6 3.02 -6 2 C-4.02 1.34 -2.04 0.68 0 0 Z " fill="#2B292A" transform="translate(558,401)"/>
<path d="M0 0 C0.53625 0.2475 1.0725 0.495 1.625 0.75 C-1.06341859 3.00245881 -3.02141875 4.63213958 -6.375 5.75 C-7.035 5.09 -7.695 4.43 -8.375 3.75 C-2.95961538 -0.31153846 -2.95961538 -0.31153846 0 0 Z " fill="#EBEBEB" transform="translate(394.375,370.25)"/>
<path d="M0 0 C2.475 0.99 2.475 0.99 5 2 C5 2.99 5 3.98 5 5 C1.23312136 5 0.08809695 4.76462683 -3 3 C-2.34 3 -1.68 3 -1 3 C-0.67 2.01 -0.34 1.02 0 0 Z " fill="#EBEAEA" transform="translate(398,610)"/>
<path d="M0 0 C3.45925163 1.2491742 6.14693203 2.67527795 9 5 C7 6 7 6 5.0546875 5.44140625 C4.33539063 5.15136719 3.61609375 4.86132812 2.875 4.5625 C2.15054687 4.27503906 1.42609375 3.98757813 0.6796875 3.69140625 C-0.15175781 3.34916016 -0.15175781 3.34916016 -1 3 C-0.67 2.01 -0.34 1.02 0 0 Z " fill="#EFEFEF" transform="translate(340,577)"/>
<path d="M0 0 C0.66 0.33 1.32 0.66 2 1 C2.33 1.99 2.66 2.98 3 4 C0.36 4.66 -2.28 5.32 -5 6 C-5 5.01 -5 4.02 -5 3 C-2.625 1.25 -2.625 1.25 0 0 Z " fill="#312E2F" transform="translate(371,385)"/>
<path d="M0 0 C0.33 0.66 0.66 1.32 1 2 C0.34 2 -0.32 2 -1 2 C-1 3.32 -1 4.64 -1 6 C-2.98 6 -4.96 6 -7 6 C-6 3 -6 3 -2.9375 1.3125 C-1.968125 0.879375 -0.99875 0.44625 0 0 Z " fill="#2E2C2D" transform="translate(403,367)"/>
<path d="M0 0 C1.32 0.66 2.64 1.32 4 2 C0.04 3.98 0.04 3.98 -4 6 C-4 5.01 -4 4.02 -4 3 C-2 1.3125 -2 1.3125 0 0 Z " fill="#EBEAEA" transform="translate(564,564)"/>
<path d="M0 0 C3.70129644 0.38961015 5.61879622 1.11749016 8 4 C3.94568308 5.15837626 1.78187881 4.83691257 -2 3 C-1 1 -1 1 0 0 Z " fill="#1C1A1B" transform="translate(534,530)"/>
<path d="M0 0 C2.91517292 1.07401108 4.77810176 1.77810176 7 4 C4.69 4.33 2.38 4.66 0 5 C-0.33 4.34 -0.66 3.68 -1 3 C-0.67 2.01 -0.34 1.02 0 0 Z " fill="#EEEAEC" transform="translate(347,473)"/>
<path d="M0 0 C4 0 4 0 6 1 C6 1.99 6 2.98 6 4 C5.01 4.495 5.01 4.495 4 5 C1.96855359 4.06553465 -0.03533587 3.06775224 -2 2 C-1.34 1.34 -0.68 0.68 0 0 Z " fill="#2E2C2D" transform="translate(461,458)"/>
<path d="M0 0 C7.75 0.75 7.75 0.75 10 3 C9.67 3.99 9.34 4.98 9 6 C6.03 4.35 3.06 2.7 0 1 C0 0.67 0 0.34 0 0 Z " fill="#EAE9EA" transform="translate(525,337)"/>
<path d="M0 0 C0.66 0.33 1.32 0.66 2 1 C2.625 3.5625 2.625 3.5625 3 6 C0.13275314 5.42655063 -0.8614515 5.1385485 -3 3 C-2.01 2.01 -1.02 1.02 0 0 Z " fill="#2E2E2E" transform="translate(461,641)"/>
<path d="M0 0 C0.99 0 1.98 0 3 0 C3.33 0.99 3.66 1.98 4 3 C0.535 4.485 0.535 4.485 -3 6 C-2.67 4.68 -2.34 3.36 -2 2 C-1.34 2 -0.68 2 0 2 C0 1.34 0 0.68 0 0 Z " fill="#2A2829" transform="translate(532,634)"/>
<path d="M0 0 C3.96 1.98 3.96 1.98 8 4 C7.67 4.66 7.34 5.32 7 6 C4.625 5.8125 4.625 5.8125 2 5 C0.6875 2.4375 0.6875 2.4375 0 0 Z " fill="#2D292A" transform="translate(585,480)"/>
<path d="M0 0 C0.66 0.33 1.32 0.66 2 1 C0.515 3.475 0.515 3.475 -1 6 C-3.97 5.505 -3.97 5.505 -7 5 C-4.702779 3.25728062 -2.40133271 1.60088848 0 0 Z " fill="#E6E4E5" transform="translate(608,594)"/>
<path d="M0 0 C-0.33 1.65 -0.66 3.3 -1 5 C-2.32 5 -3.64 5 -5 5 C-5.33 4.01 -5.66 3.02 -6 2 C-3 0 -3 0 0 0 Z " fill="#2C292A" transform="translate(348,400)"/>
<path d="M0 0 C0.33 0.66 0.66 1.32 1 2 C0.67 2.66 0.34 3.32 0 4 C-0.99 4 -1.98 4 -3 4 C-3.33 4.99 -3.66 5.98 -4 7 C-6 6 -6 6 -7 4 C-4.69 2.68 -2.38 1.36 0 0 Z " fill="#312F2F" transform="translate(465,331)"/>
<path d="M0 0 C0.33 0.99 0.66 1.98 1 3 C1.66 3 2.32 3 3 3 C3 4.32 3 5.64 3 7 C0.525 6.01 0.525 6.01 -2 5 C-1.34 3.35 -0.68 1.7 0 0 Z " fill="#2B292A" transform="translate(351,577)"/>
<path d="M0 0 C0.5534764 2.07553648 1 3.84365964 1 6 C-0.32 6 -1.64 6 -3 6 C-3.33 4.68 -3.66 3.36 -4 2 C-2.68 1.34 -1.36 0.68 0 0 Z " fill="#292728" transform="translate(591,552)"/>
<path d="M0 0 C2.96175123 0.61277612 4.38058783 1.25372522 7 3 C6.67 3.99 6.34 4.98 6 6 C2.535 4.02 2.535 4.02 -1 2 C-0.67 1.34 -0.34 0.68 0 0 Z " fill="#ECE9EA" transform="translate(392,552)"/>
<path d="M0 0 C0.99 0.66 1.98 1.32 3 2 C1.25 4.0625 1.25 4.0625 -1 6 C-3.25 5.75 -3.25 5.75 -5 5 C-3.625 3.5 -3.625 3.5 -2 2 C-1.34 2 -0.68 2 0 2 C0 1.34 0 0.68 0 0 Z " fill="#292728" transform="translate(358,505)"/>
<path d="M0 0 C0.33 0.66 0.66 1.32 1 2 C3.01669827 3.13350534 3.01669827 3.13350534 5 4 C5 4.99 5 5.98 5 7 C1.535 5.02 1.535 5.02 -2 3 C-1.34 2.01 -0.68 1.02 0 0 Z " fill="#E4E2E3" transform="translate(628,501)"/>
<path d="M0 0 C1.65 0 3.3 0 5 0 C5 0.66 5 1.32 5 2 C5.99 2 6.98 2 8 2 C8 2.99 8 3.98 8 5 C4.62496331 3.8141763 2.35277269 2.72426311 0 0 Z " fill="#E2E2E2" transform="translate(467,489)"/>
<path d="M0 0 C3.26954202 0.56371414 4.82575883 1.49962266 7 4 C6.01 4.33 5.02 4.66 4 5 C1.3125 3.5625 1.3125 3.5625 -1 2 C-0.67 1.34 -0.34 0.68 0 0 Z " fill="#2B2829" transform="translate(369,483)"/>
<path d="M0 0 C2.91517292 1.07401108 4.77810176 1.77810176 7 4 C4.625 4.625 4.625 4.625 2 5 C1.34 4.34 0.68 3.68 0 3 C0 2.01 0 1.02 0 0 Z " fill="#302E2F" transform="translate(422,464)"/>
<path d="M0 0 C1.98 0.99 3.96 1.98 6 3 C5.01 3.66 4.02 4.32 3 5 C1.02 4.01 -0.96 3.02 -3 2 C-2.01 1.34 -1.02 0.68 0 0 Z " fill="#EAEAEA" transform="translate(559,354)"/>
<path d="M0 0 C2.4375 0.8125 2.4375 0.8125 5 2 C5.33 2.99 5.66 3.98 6 5 C3.03 4.505 3.03 4.505 0 4 C0 2.68 0 1.36 0 0 Z " fill="#E8E8E8" transform="translate(550,512)"/>
<path d="M0 0 C1.65 0 3.3 0 5 0 C4.67 0.99 4.34 1.98 4 3 C2.02 3.33 0.04 3.66 -2 4 C-1.34 2.68 -0.68 1.36 0 0 Z " fill="#2F2B2C" transform="translate(410,411)"/>
<path d="M0 0 C2.125 0.9375 2.125 0.9375 4 2 C3.01 2.99 2.02 3.98 1 5 C0.01 4.67 -0.98 4.34 -2 4 C-2 3.01 -2 2.02 -2 1 C-1.34 0.67 -0.68 0.34 0 0 Z " fill="#2A2A2A" transform="translate(578,368)"/>
<path d="M0 0 C0.66 0.33 1.32 0.66 2 1 C2 1.99 2 2.98 2 4 C0.35 4.33 -1.3 4.66 -3 5 C-3 4.01 -3 3.02 -3 2 C-2.01 1.34 -1.02 0.68 0 0 Z " fill="#E2E2E2" transform="translate(528,640)"/>
<path d="M0 0 C1.625 2 1.625 2 3 4 C2.01 4.33 1.02 4.66 0 5 C-1.32 3.68 -2.64 2.36 -4 1 C-2 0 -2 0 0 0 Z " fill="#282828" transform="translate(446,633)"/>
<path d="M0 0 C0 3 0 3 -1.5 4.6875 C-1.995 5.120625 -2.49 5.55375 -3 6 C-4.32 5.34 -5.64 4.68 -7 4 C-4.69 2.68 -2.38 1.36 0 0 Z " fill="#383536" transform="translate(585,555)"/>
<path d="M0 0 C1.98 0.99 3.96 1.98 6 3 C5.67 3.66 5.34 4.32 5 5 C2.69 5 0.38 5 -2 5 C-1.34 3.35 -0.68 1.7 0 0 Z " fill="#2B2A2B" transform="translate(374,514)"/>
<path d="M0 0 C0.99 0.33 1.98 0.66 3 1 C1.35 2.65 -0.3 4.3 -2 6 C-2.99 5.34 -3.98 4.68 -5 4 C-4.175 3.525625 -3.35 3.05125 -2.5 2.5625 C-1.2625 1.7890625 -1.2625 1.7890625 0 1 C0 0.67 0 0.34 0 0 Z " fill="#2B2728" transform="translate(388,489)"/>
<path d="M0 0 C1.32 0.66 2.64 1.32 4 2 C3.67 2.99 3.34 3.98 3 5 C0.525 4.01 0.525 4.01 -2 3 C-1.34 2.01 -0.68 1.02 0 0 Z " fill="#EAEAEA" transform="translate(458,481)"/>
<path d="M0 0 C2.475 0.99 2.475 0.99 5 2 C5 2.99 5 3.98 5 5 C3.02 4.01 1.04 3.02 -1 2 C-0.67 1.34 -0.34 0.68 0 0 Z " fill="#F0EFF0" transform="translate(569,468)"/>
<path d="M0 0 C2.9375 1.25 2.9375 1.25 6 3 C6.875 5.1875 6.875 5.1875 7 7 C4.13302508 5.71480435 2.02392288 4.42870746 0 2 C0 1.34 0 0.68 0 0 Z " fill="#2D2C2C" transform="translate(414,459)"/>
<path d="M0 0 C1.4540625 0.0309375 1.4540625 0.0309375 2.9375 0.0625 C2.9375 1.0525 2.9375 2.0425 2.9375 3.0625 C1.125 3.75 1.125 3.75 -1.0625 4.0625 C-2.8125 2.625 -2.8125 2.625 -4.0625 1.0625 C-3.0625 0.0625 -3.0625 0.0625 0 0 Z " fill="#E8E7E8" transform="translate(417.0625,456.9375)"/>
<path d="M0 0 C0.66 0.33 1.32 0.66 2 1 C2 1.99 2 2.98 2 4 C-0.375 4.625 -0.375 4.625 -3 5 C-3.66 4.34 -4.32 3.68 -5 3 C-2.625 1.4375 -2.625 1.4375 0 0 Z " fill="#322E2F" transform="translate(456,336)"/>
</svg>
