<?xml version="1.0" encoding="UTF-8"?>
<svg version="1.1" xmlns="http://www.w3.org/2000/svg" width="67" height="67">
<path d="M0 0 C0.71495132 -0.00761353 1.42990265 -0.01522705 2.16651917 -0.02307129 C3.67518633 -0.03385226 5.183928 -0.0367335 6.69262695 -0.03222656 C8.99362377 -0.03125434 11.2912815 -0.07288529 13.59179688 -0.1171875 C15.061191 -0.12239524 16.53059665 -0.12508268 18 -0.125 C18.68348007 -0.14139526 19.36696014 -0.15779053 20.07115173 -0.17468262 C23.82249674 -0.12076227 25.413054 0.34177017 28.3347168 2.76098633 C29.43940308 4.10132935 29.43940308 4.10132935 30.56640625 5.46875 C31.15341309 6.09289795 31.74041992 6.7170459 32.34521484 7.36010742 C38.3433611 15.49317048 37.4003408 25.09931342 37.23876953 34.74731445 C37.19124481 37.79159157 37.197712 40.83239489 37.2109375 43.87695312 C37.19979205 45.82033332 37.18557738 47.76369887 37.16796875 49.70703125 C37.17070297 51.06493523 37.17070297 51.06493523 37.17349243 52.45027161 C37.0813168 56.55164912 36.88892183 58.91890542 34.77880859 62.51635742 C31.58393561 65.33575703 28.69716708 65.58831725 24.53564453 65.62988281 C23.36390182 65.64429413 23.36390182 65.64429413 22.16848755 65.65899658 C21.33300385 65.66324646 20.49752014 65.66749634 19.63671875 65.671875 C18.76876678 65.67757507 17.90081482 65.68327515 17.00656128 65.68914795 C15.17251804 65.69858108 13.33845797 65.70512522 11.50439453 65.70898438 C8.7083564 65.71869116 5.9130533 65.74973064 3.1171875 65.78125 C1.3320356 65.78778058 -0.45312154 65.79303084 -2.23828125 65.796875 C-3.06971649 65.8092218 -3.90115173 65.8215686 -4.75778198 65.83428955 C-9.7180715 65.81538548 -13.14090309 65.23730378 -17.43359375 62.46875 C-18.58548138 60.16497473 -18.5960245 58.75925061 -18.65820312 56.19360352 C-18.68072144 55.3083046 -18.70323975 54.42300568 -18.72644043 53.51087952 C-18.79774164 49.43027423 -18.85506298 45.34985083 -18.89355469 41.26879883 C-18.92005095 39.12631745 -18.96085229 36.98396084 -19.01660156 34.84204102 C-19.56819134 13.38818911 -19.56819134 13.38818911 -13.33789062 5.33959961 C-8.96050693 1.03910073 -6.15654853 0.00180893 0 0 Z " fill="#353535" transform="translate(23.43359375,0.53125)"/>
<path d="M0 0 C4.90163337 4.33188632 8.40871672 8.94815354 9.37109375 15.54296875 C9.55101369 22.70801595 8.28032526 28.15669201 4 34 C-2.73561723 40.33637414 -8.06297616 41.53902052 -17.21875 41.34375 C-23.86764966 40.73930458 -27.56779244 37.80167405 -31.875 32.9375 C-36.7569621 26.18890533 -36.88772302 20.24842639 -36 12 C-33.58794707 5.15149257 -27.77601837 0.1861159 -21.625 -3.375 C-13.87617654 -5.21995797 -6.86882629 -4.06915617 0 0 Z " fill="#50504D" transform="translate(46,19)"/>
<path d="M0 0 C1.07454941 -0.01354271 1.07454941 -0.01354271 2.17080688 -0.02735901 C3.68544338 -0.04185486 5.2001424 -0.05074661 6.71484375 -0.05444336 C9.02451933 -0.0663314 11.33151402 -0.1155069 13.640625 -0.16601562 C15.11457033 -0.17548159 16.58853203 -0.1827158 18.0625 -0.1875 C18.74911713 -0.20703232 19.43573425 -0.22656464 20.14315796 -0.24668884 C23.81958592 -0.21234592 25.52005304 0.25951101 28.45166016 2.53100586 C30.6640625 5.37109375 30.6640625 5.37109375 33.6640625 11.37109375 C17.1640625 11.37109375 0.6640625 11.37109375 -16.3359375 11.37109375 C-8.80076426 0.0683339 -8.80076426 0.0683339 0 0 Z " fill="#505050" transform="translate(23.3359375,0.62890625)"/>
<path d="M0 0 C0.66 1.32 1.32 2.64 2 4 C1.01 4.33 0.02 4.66 -1 5 C-0.42547254 8.93075644 -0.42547254 8.93075644 2 12 C2.47086916 15.60999687 2.48572438 17.3343777 0.3125 20.3125 C-2.23523615 22.17165881 -3.85817768 22.83464093 -7 23 C-7.66 22.34 -8.32 21.68 -9 21 C-8.625 18.875 -8.625 18.875 -8 17 C-7.01 17 -6.02 17 -5 17 C-6.51865214 12.70111387 -6.51865214 12.70111387 -9 9 C-9.44437646 5.71161423 -9.2944593 4.40351831 -7.3125 1.6875 C-4.60883753 -0.28544288 -3.27034459 -0.36337162 0 0 Z " fill="#F5B903" transform="translate(30,26)"/>
<path d="M0 0 C0.72252457 -0.00570007 1.44504913 -0.01140015 2.18946838 -0.01727295 C3.71850113 -0.02672218 5.24755424 -0.03325663 6.77661133 -0.03710938 C9.11640866 -0.04682312 11.45533048 -0.07784877 13.79492188 -0.109375 C15.2799427 -0.11590437 16.7649698 -0.1211551 18.25 -0.125 C18.95007675 -0.1373468 19.6501535 -0.1496936 20.3714447 -0.16241455 C25.24790691 -0.14003736 25.24790691 -0.14003736 27.65649414 1.72363281 C28.16877563 2.45598145 28.16877563 2.45598145 28.69140625 3.203125 C27.69140625 4.203125 27.69140625 4.203125 25.625 4.30078125 C24.80128906 4.28917969 23.97757813 4.27757812 23.12890625 4.265625 C22.30261719 4.25660156 21.47632812 4.24757813 20.625 4.23828125 C19.98691406 4.22667969 19.34882812 4.21507812 18.69140625 4.203125 C18.69140625 4.533125 18.69140625 4.863125 18.69140625 5.203125 C15.58725923 5.23216077 12.48314716 5.2499357 9.37890625 5.265625 C8.05729492 5.27819336 8.05729492 5.27819336 6.70898438 5.29101562 C5.86142578 5.29423828 5.01386719 5.29746094 4.140625 5.30078125 C2.97019653 5.30863647 2.97019653 5.30863647 1.77612305 5.31665039 C-0.30859375 5.203125 -0.30859375 5.203125 -3.30859375 4.203125 C-5.30820939 4.16391685 -7.30908739 4.15869153 -9.30859375 4.203125 C-9.30859375 3.213125 -9.30859375 2.223125 -9.30859375 1.203125 C-6.32837563 -0.28698406 -3.26935184 0.01978967 0 0 Z " fill="#757575" transform="translate(23.30859375,0.796875)"/>
<path d="M0 0 C-1.32347303 2.98745126 -2.72786488 4.75460159 -5.125 6.9375 C-8.91900092 11.22314407 -8.67100408 15.45752088 -8.38671875 20.97265625 C-7.69425163 26.39348468 -6.05195638 28.97142043 -2.1875 32.75 C3.47917518 36.75000601 7.77355912 37.39549261 14.53125 36.55078125 C18.28044894 35.71433022 20.81775746 34.14314293 24 32 C24.99 31.34 25.98 30.68 27 30 C25.49364535 34.21779303 22.75987578 35.7747674 19 38 C13.11364627 39.96211791 6.39764423 40.016986 0.6875 37.4375 C-4.42294527 34.46777513 -7.88470678 30.38267188 -10.375 25.0625 C-11.78364616 18.16013379 -11.45415245 12.1945317 -8 6 C-3.21276596 0 -3.21276596 0 0 0 Z " fill="#3D3D3D" transform="translate(22,20)"/>
<path d="M0 0 C1.1446875 0.3403125 1.1446875 0.3403125 2.3125 0.6875 C2.6425 1.6775 2.9725 2.6675 3.3125 3.6875 C2.3225 3.6875 1.3325 3.6875 0.3125 3.6875 C0.828125 4.574375 1.34375 5.46125 1.875 6.375 C3.3125 9.6875 3.3125 9.6875 3.25 12.4375 C2.3125 14.6875 2.3125 14.6875 0.5 16.0625 C-2.04654274 16.79008364 -3.27454922 16.76916759 -5.6875 15.6875 C-6.0175 14.6975 -6.3475 13.7075 -6.6875 12.6875 C-5.6975 12.3575 -4.7075 12.0275 -3.6875 11.6875 C-4.0175 11.130625 -4.3475 10.57375 -4.6875 10 C-5.85553602 7.29891671 -6.06117024 5.60212786 -5.6875 2.6875 C-3.93031165 -0.08700791 -3.30350824 -0.38412887 0 0 Z " fill="#F6B903" transform="translate(40.6875,32.3125)"/>
<path d="M0 0 C0.33 0.66 0.66 1.32 1 2 C6.445 1.505 6.445 1.505 12 1 C12 1.33 12 1.66 12 2 C16.62 2 21.24 2 26 2 C26 1.67 26 1.34 26 1 C28.12438339 0.91921359 30.2496323 0.86090859 32.375 0.8125 C33.55835938 0.77769531 34.74171875 0.74289063 35.9609375 0.70703125 C37.46527344 0.85205078 37.46527344 0.85205078 39 1 C39.66 1.99 40.32 2.98 41 4 C39.43883181 4.33951619 37.87598662 4.67132544 36.3125 5 C35.00732422 5.2784375 35.00732422 5.2784375 33.67578125 5.5625 C31.06287036 5.98972047 28.64186962 6.07616201 26 6 C26 5.67 26 5.34 26 5 C21.71 5 17.42 5 13 5 C13 5.33 13 5.66 13 6 C8.30976546 5.43393721 3.65499974 4.81462495 -1 4 C-0.67 2.68 -0.34 1.36 0 0 Z " fill="#5E5E5E" transform="translate(13,3)"/>
<path d="M0 0 C0.99 1.65 1.98 3.3 3 5 C-11.85 4.67 -26.7 4.34 -42 4 C-42 3.67 -42 3.34 -42 3 C-41.21874756 2.98018066 -40.43749512 2.96036133 -39.63256836 2.93994141 C-36.06722682 2.84424528 -32.50243558 2.73474661 -28.9375 2.625 C-27.70837891 2.5940625 -26.47925781 2.563125 -25.21289062 2.53125 C-16.70051797 2.25591719 -8.33877694 -0.97285731 0 0 Z " fill="#494949" transform="translate(54,7)"/>
<path d="M0 0 C0.33 0 0.66 0 1 0 C1.76154168 11.55851039 1.76154168 11.55851039 -0.75 16.3125 C-5.71529154 18.89063215 -10.5164725 18.39355461 -16 18 C-16 17.67 -16 17.34 -16 17 C-15.09507813 16.85304688 -15.09507813 16.85304688 -14.171875 16.703125 C-7.6677942 15.49862346 -7.6677942 15.49862346 -3 11 C-1.21270447 7.42540894 -0.55025909 3.94352346 0 0 Z " fill="#3F3F3F" transform="translate(57,45)"/>
<path d="M0 0 C2.62561109 -0.08074203 5.24875676 -0.1403623 7.875 -0.1875 C8.99455078 -0.22520508 8.99455078 -0.22520508 10.13671875 -0.26367188 C12.3046875 -0.29296875 12.3046875 -0.29296875 16 0 C16.66 0.99 17.32 1.98 18 3 C11.73 3 5.46 3 -1 3 C-0.67 2.01 -0.34 1.02 0 0 Z " fill="#6B6B6B" transform="translate(24,3)"/>
<path d="M0 0 C-2 2 -2 2 -4.375 3.1875 C-7.91923607 5.63471062 -9.05588707 8.18377833 -11 12 C-11.33 12 -11.66 12 -12 12 C-12.48 4.8 -12.48 4.8 -10.5 1.5 C-6.85991277 -0.68405234 -4.20345267 -0.28023018 0 0 Z " fill="#3F3F3F" transform="translate(19,12)"/>
<path d="M0 0 C0.33 0.66 0.66 1.32 1 2 C3.64 1.67 6.28 1.34 9 1 C8.67 2.32 8.34 3.64 8 5 C5.03 4.67 2.06 4.34 -1 4 C-0.67 2.68 -0.34 1.36 0 0 Z " fill="#636363" transform="translate(13,3)"/>
</svg>
